<svg xmlns="http://www.w3.org/2000/svg" viewBox="0 0 250 250" width="100%" height="100%">
  <path fill="#DD0031" d="M125 30L31.9 63.2l14.2 123.1L125 230l78.9-43.7 14.2-123.1z" />
  <path fill="#C3002F" d="M125 30v22.2-.1V230l78.9-43.7 14.2-123.1L125 30z" />
  <path fill="#FFA3B1" d="M125 52.1L66.8 182.6h21.7l11.7-29.2h49.4l11.7 29.2h21.7z" />
  <path fill="#F2F2F2" d="M125 52.1v46.8v10.7V153h36.5l11.7 29.2h21.7L125 52.1z" />
  <path fill="#FFA3B1" d="M100.2 153l24.8-61v-10.7L100.2 153z" />
  <path fill="#F2F2F2" d="M125 81.3v10.7l24.8 61H125V81.3z" />
</svg>
